<svg width="194" height="206" viewBox="0 0 194 206" fill="none" xmlns="http://www.w3.org/2000/svg">
<rect x="0.5" y="0.572998" width="192.765" height="204.927" rx="17.3707" fill="white"/>
<rect x="0.5" y="0.572998" width="192.765" height="204.927" rx="17.3707" stroke="#BFC2C6"/>
<g clip-path="url(#clip0_2321_5567)">
<rect x="51.1768" y="20.2825" width="70.9474" height="9.09582" rx="4.54791" fill="#DADBDD"/>
<rect x="51.1768" y="35.7065" width="121.884" height="7.27666" rx="3.63833" fill="#DADBDD"/>
<path d="M28.9525 24.626C29.6815 28.0208 32.3333 30.6727 35.7282 31.4017C32.3333 32.1307 29.6815 34.7826 28.9525 38.1774C28.2235 34.7826 25.5716 32.1307 22.1768 31.4017C25.5716 30.6727 28.2235 28.0208 28.9525 24.626Z" fill="#174880"/>
<path d="M37.1801 34.8269C37.5446 36.5243 38.8705 37.8503 40.5679 38.2148C38.8705 38.5793 37.5446 39.9052 37.1801 41.6026C36.8156 39.9052 35.4896 38.5793 33.7922 38.2148C35.4896 37.8503 36.8156 36.5243 37.1801 34.8269Z" fill="#174880"/>
<path d="M35.7282 21.7222C35.9364 22.6921 36.6941 23.4498 37.6641 23.6581C36.6941 23.8664 35.9364 24.624 35.7282 25.594C35.5199 24.624 34.7622 23.8664 33.7922 23.6581C34.7622 23.4498 35.5199 22.6921 35.7282 21.7222Z" fill="#174880"/>
<rect x="28.4841" y="155.581" width="4.64704" height="4.71269" rx="2.32352" fill="#DADBDD"/>
<rect x="57.8345" y="155.581" width="4.64704" height="4.71269" rx="2.32352" fill="#DADBDD"/>
<rect x="83.0254" y="155.581" width="4.64704" height="4.71269" rx="2.32352" fill="#DADBDD"/>
<rect x="106.708" y="155.581" width="4.64704" height="4.71269" rx="2.32352" fill="#DADBDD"/>
<rect x="132.187" y="155.581" width="4.64704" height="4.71269" rx="2.32352" fill="#DADBDD"/>
<rect x="157.624" y="155.581" width="4.64704" height="4.71269" rx="2.32352" fill="#DADBDD"/>
<path fill-rule="evenodd" clip-rule="evenodd" d="M172.284 80.1414C172.284 75.7231 168.702 72.1414 164.284 72.1414H29.48C25.0618 72.1414 21.48 75.7231 21.48 80.1414V143.388C21.48 147.806 25.0618 151.388 29.48 151.388H164.284C168.702 151.388 172.284 147.806 172.284 143.388V80.1414ZM28.9998 71.6611C24.5815 71.6611 20.9998 75.2429 20.9998 79.6611V143.868C20.9998 148.286 24.5815 151.868 28.9998 151.868H164.764C169.183 151.868 172.764 148.286 172.764 143.868V79.6611C172.764 75.2429 169.183 71.6611 164.764 71.6611H28.9998Z" fill="#DADBDD"/>
<path fill-rule="evenodd" clip-rule="evenodd" d="M172.764 86.7899H20.9995V86.3096H172.764V86.7899Z" fill="#DADBDD"/>
<path fill-rule="evenodd" clip-rule="evenodd" d="M172.764 103.6H20.9995V103.12H172.764V103.6Z" fill="#DADBDD"/>
<path fill-rule="evenodd" clip-rule="evenodd" d="M172.764 120.409H20.9995V119.929H172.764V120.409Z" fill="#DADBDD"/>
<path fill-rule="evenodd" clip-rule="evenodd" d="M172.764 137.22H20.9995V136.74H172.764V137.22Z" fill="#DADBDD"/>
<path fill-rule="evenodd" clip-rule="evenodd" d="M46.0934 151.868L46.0934 71.6611L46.5737 71.6611L46.5737 151.868L46.0934 151.868Z" fill="#DADBDD"/>
<path fill-rule="evenodd" clip-rule="evenodd" d="M71.187 151.868L71.187 71.6611L71.6672 71.6611L71.6672 151.868L71.187 151.868Z" fill="#DADBDD"/>
<path fill-rule="evenodd" clip-rule="evenodd" d="M96.2807 151.868L96.2807 71.6611L96.761 71.6611L96.761 151.868L96.2807 151.868Z" fill="#DADBDD"/>
<path fill-rule="evenodd" clip-rule="evenodd" d="M121.615 151.868L121.615 71.6611L122.095 71.6611L122.095 151.868L121.615 151.868Z" fill="#DADBDD"/>
<path fill-rule="evenodd" clip-rule="evenodd" d="M146.708 151.868L146.708 71.6611L147.188 71.6611L147.188 151.868L146.708 151.868Z" fill="#DADBDD"/>
<path d="M59.823 82.2498C59.823 79.6508 61.9299 77.5439 64.5289 77.5439C67.1279 77.5439 69.2348 79.6508 69.2348 82.2498V108.72C69.2348 111.319 67.1279 113.426 64.5289 113.426C61.9299 113.426 59.823 111.319 59.823 108.72V82.2498Z" fill="#174880"/>
<path d="M33.3525 82.5439C33.3525 79.7825 35.5911 77.5439 38.3525 77.5439C41.114 77.5439 43.3525 79.7825 43.3525 82.5439V108.426C43.3525 111.188 41.114 113.426 38.3525 113.426C35.5911 113.426 33.3525 111.188 33.3525 108.426V82.5439Z" fill="#174880"/>
<path d="M23.9409 115.347C23.9409 114.286 24.801 113.426 25.862 113.426H31.4316C32.4926 113.426 33.3527 114.286 33.3527 115.347V123.269C33.3527 124.33 32.4926 125.19 31.4316 125.19H25.862C24.801 125.19 23.9409 124.33 23.9409 123.269V115.347Z" fill="#A4BFE2"/>
<path d="M48.647 101.229C48.647 100.168 49.5071 99.3079 50.5681 99.3079H56.7258C57.7869 99.3079 58.647 100.168 58.647 101.229V111.504C58.647 112.565 57.7869 113.426 56.7258 113.426H50.5681C49.5071 113.426 48.647 112.565 48.647 111.504V101.229Z" fill="#A4BFE2"/>
<path d="M73.3533 115.347C73.3533 114.286 74.2134 113.426 75.2744 113.426H81.4321C82.4932 113.426 83.3533 114.286 83.3533 115.347V146.211C83.3533 147.272 82.4932 148.132 81.4321 148.132H75.2744C74.2134 148.132 73.3533 147.272 73.3533 146.211V115.347Z" fill="#A4BFE2"/>
<path d="M98.647 115.347C98.647 114.286 99.5071 113.426 100.568 113.426H106.726C107.787 113.426 108.647 114.286 108.647 115.347V121.505C108.647 122.566 107.787 123.426 106.726 123.426H100.568C99.5071 123.426 98.647 122.566 98.647 121.505V115.347Z" fill="#A4BFE2"/>
<path d="M84.5293 115.347C84.5293 114.286 85.3894 113.426 86.4504 113.426H92.6082C93.6692 113.426 94.5293 114.286 94.5293 115.347V121.505C94.5293 122.566 93.6692 123.426 92.6082 123.426H86.4504C85.3894 123.426 84.5293 122.566 84.5293 121.505V115.347Z" fill="#174880"/>
<path d="M124.53 98.8767C124.53 97.8157 125.39 96.9556 126.451 96.9556H132.02C133.081 96.9556 133.941 97.8157 133.941 98.8767V110.917C133.941 111.978 133.081 112.838 132.02 112.838H126.451C125.39 112.838 124.53 111.978 124.53 110.917V98.8767Z" fill="#A4BFE2"/>
<path d="M135.117 98.8767C135.117 97.8157 135.978 96.9556 137.039 96.9556H142.608C143.669 96.9556 144.529 97.8157 144.529 98.8767V110.917C144.529 111.978 143.669 112.838 142.608 112.838H137.039C135.978 112.838 135.117 111.978 135.117 110.917V98.8767Z" fill="#174880"/>
<path d="M149.235 115.347C149.235 114.286 150.095 113.426 151.156 113.426H157.314C158.375 113.426 159.235 114.286 159.235 115.347V132.681C159.235 133.742 158.375 134.602 157.314 134.602H151.156C150.095 134.602 149.235 133.742 149.235 132.681V115.347Z" fill="#A4BFE2"/>
<path d="M109.824 119.014C109.824 116.252 112.062 114.014 114.824 114.014C117.585 114.014 119.824 116.252 119.824 119.014V123.132C119.824 125.893 117.585 128.132 114.824 128.132C112.062 128.132 109.824 125.893 109.824 123.132V119.014Z" fill="#174880"/>
<path d="M159.824 86.6609C159.824 83.8995 162.062 81.6609 164.824 81.6609C167.585 81.6609 169.824 83.8995 169.824 86.6609V109.014C169.824 111.775 167.585 114.014 164.824 114.014C162.062 114.014 159.824 111.775 159.824 109.014V86.6609Z" fill="#174880"/>
<path d="M20.999 182.058C20.999 181.084 21.7891 180.293 22.7637 180.293C23.7383 180.293 24.5284 181.084 24.5284 182.058C24.5284 183.033 23.7383 183.823 22.7637 183.823C21.7891 183.823 20.999 183.033 20.999 182.058Z" fill="#A4BFE2"/>
<rect x="28.646" y="178.72" width="24.7059" height="5.88235" rx="2.94118" fill="#DADBDD"/>
<path d="M67.47 182.058C67.47 181.084 68.2601 180.293 69.2347 180.293C70.2093 180.293 70.9994 181.084 70.9994 182.058C70.9994 183.033 70.2093 183.823 69.2347 183.823C68.2601 183.823 67.47 183.033 67.47 182.058Z" fill="#174880"/>
<rect x="75.1172" y="178.72" width="24.7059" height="5.88235" rx="2.94118" fill="#DADBDD"/>
</g>
<defs>
<clipPath id="clip0_2321_5567">
<rect width="151.765" height="163.927" fill="white" transform="translate(21 21.073)"/>
</clipPath>
</defs>
</svg>
