<svg width="32" height="32" viewBox="0 0 32 32" fill="none" xmlns="http://www.w3.org/2000/svg">
<path fill-rule="evenodd" clip-rule="evenodd" d="M16.5047 24.624C16.1854 24.4723 15.8143 24.4723 15.495 24.624L8.63497 27.8836C7.76607 28.2965 6.79534 27.548 6.98092 26.6083L8.37997 19.5239C8.45402 19.1489 8.3384 18.7617 8.07058 18.4877L2.99925 13.2991C2.32554 12.6098 2.73412 11.4514 3.69318 11.3317L10.7892 10.446C11.1779 10.3975 11.5164 10.1589 11.6913 9.81036L14.9519 3.3112C15.3832 2.4516 16.6165 2.45161 17.0478 3.3112L20.3084 9.81036C20.4833 10.1589 20.8218 10.3975 21.2105 10.446L28.3065 11.3317C29.2656 11.4514 29.6741 12.6098 29.0004 13.2991L23.9291 18.4877C23.6613 18.7617 23.5457 19.1489 23.6197 19.5239L25.0188 26.6083C25.2043 27.548 24.2336 28.2965 23.3647 27.8836L16.5047 24.624Z" fill="#26282A"/>
</svg>
