<svg width="21" height="19" viewBox="0 0 21 19" fill="none" xmlns="http://www.w3.org/2000/svg">
<path fill-rule="evenodd" clip-rule="evenodd" d="M10.8787 16.4681C10.6392 16.3543 10.3608 16.3543 10.1213 16.4681L4.97635 18.9128C4.32468 19.2225 3.59663 18.6611 3.73581 17.9563L4.7851 12.643C4.84063 12.3618 4.75392 12.0714 4.55306 11.8659L0.74956 7.97441C0.24428 7.45744 0.550713 6.58868 1.27001 6.4989L6.59202 5.83461C6.88352 5.79822 7.13742 5.61932 7.26858 5.35789L9.71406 0.48352C10.0375 -0.161174 10.9625 -0.161173 11.2859 0.483521L13.7314 5.35789C13.8626 5.61932 14.1165 5.79822 14.408 5.83461L19.73 6.4989C20.4493 6.58868 20.7557 7.45744 20.2504 7.97441L16.4469 11.8659C16.2461 12.0714 16.1594 12.3618 16.2149 12.643L17.2642 17.9563C17.4034 18.6611 16.6753 19.2225 16.0237 18.9128L10.8787 16.4681Z" fill="white"/>
</svg>
