<svg width="20" height="19" viewBox="0 0 20 19" fill="none" xmlns="http://www.w3.org/2000/svg">
<path fill-rule="evenodd" clip-rule="evenodd" d="M10.3787 16.4681C10.1392 16.3543 9.86081 16.3543 9.62134 16.4681L4.47635 18.9128C3.82468 19.2225 3.09663 18.6611 3.23581 17.9563L4.2851 12.643C4.34063 12.3618 4.25392 12.0714 4.05306 11.8659L0.24956 7.97441C-0.25572 7.45744 0.0507134 6.58868 0.770008 6.4989L6.09202 5.83461C6.38352 5.79822 6.63742 5.61932 6.76858 5.35789L9.21406 0.48352C9.5375 -0.161174 10.4625 -0.161173 10.7859 0.483521L13.2314 5.35789C13.3626 5.61932 13.6165 5.79822 13.908 5.83461L19.23 6.4989C19.9493 6.58868 20.2557 7.45744 19.7504 7.97441L15.9469 11.8659C15.7461 12.0714 15.6594 12.3618 15.7149 12.643L16.7642 17.9563C16.9034 18.6611 16.1753 19.2225 15.5237 18.9128L10.3787 16.4681Z" fill="white"/>
</svg>
