<svg width="62" height="62" viewBox="0 0 62 62" fill="none" xmlns="http://www.w3.org/2000/svg">
<path d="M33.833 0.541992C36.5706 0.541992 38.792 2.7624 38.792 5.5V6.20801H48C52.3044 6.20801 55.792 9.69556 55.792 14V23.208H56.5C59.2376 23.208 61.458 25.4294 61.458 28.167V33.833C61.458 36.5706 59.2376 38.792 56.5 38.792H55.792V48C55.792 52.3044 52.3044 55.792 48 55.792H38.792V56.5C38.792 59.2376 36.5706 61.458 33.833 61.458H28.167C25.4294 61.458 23.208 59.2376 23.208 56.5V55.792H14C9.83018 55.792 6.42752 52.5191 6.21875 48.4014L6.20801 48V38.792H5.5C2.7624 38.792 0.541992 36.5706 0.541992 33.833V28.167C0.541992 25.4294 2.7624 23.208 5.5 23.208H6.20801V14C6.20801 9.69556 9.69556 6.20801 14 6.20801H23.208V5.5C23.208 2.7624 25.4294 0.541992 28.167 0.541992H33.833ZM28.167 50.125C27.7767 50.125 27.4582 50.4428 27.458 50.833V56.5C27.458 56.8904 27.7766 57.208 28.167 57.208H33.833C34.2234 57.208 34.542 56.8904 34.542 56.5V50.833C34.5418 50.4428 34.2233 50.125 33.833 50.125H28.167ZM14 10.458C12.0428 10.458 10.458 12.0428 10.458 14V23.208H11.167C13.9044 23.2082 16.125 25.4295 16.125 28.167V33.833C16.125 36.5705 13.9044 38.7918 11.167 38.792H10.458V48L10.4629 48.1826C10.5578 50.0548 12.104 51.542 14 51.542H23.208V50.833C23.2082 48.0956 25.4295 45.875 28.167 45.875H33.833C36.5705 45.875 38.7918 48.0956 38.792 50.833V51.542H48C49.9572 51.542 51.542 49.9572 51.542 48V38.792H50.833C48.0956 38.7918 45.875 36.5705 45.875 33.833V28.167C45.875 25.4295 48.0956 23.2082 50.833 23.208H51.542V14C51.542 12.0428 49.9572 10.458 48 10.458H38.792V11.167C38.7918 13.9044 36.5705 16.125 33.833 16.125H28.167C25.4295 16.125 23.2082 13.9044 23.208 11.167V10.458H14ZM5.5 27.458C5.10961 27.458 4.79199 27.7766 4.79199 28.167V33.833C4.79199 34.2234 5.10961 34.542 5.5 34.542H11.167C11.5572 34.5418 11.875 34.2233 11.875 33.833V28.167C11.875 27.7767 11.5572 27.4582 11.167 27.458H5.5ZM50.833 27.458C50.4428 27.4582 50.125 27.7767 50.125 28.167V33.833C50.125 34.2233 50.4428 34.5418 50.833 34.542H56.5C56.8904 34.542 57.208 34.2234 57.208 33.833V28.167C57.208 27.7766 56.8904 27.458 56.5 27.458H50.833ZM31.1816 28.5234C32.5807 28.5032 33.6914 29.637 33.6914 31C33.6914 32.3469 32.6038 33.4822 31.2129 33.4824C29.8438 33.4824 28.7335 32.372 28.7334 31.0029C28.7334 28.9876 30.3878 28.535 31.1816 28.5234ZM28.167 4.79199C27.7766 4.79199 27.458 5.10961 27.458 5.5V11.167C27.4582 11.5572 27.7767 11.875 28.167 11.875H33.833C34.2233 11.875 34.5418 11.5572 34.542 11.167V5.5C34.542 5.10961 34.2234 4.79199 33.833 4.79199H28.167Z" fill="white"/>
</svg>
