<svg width="20" height="25" viewBox="0 0 20 25" fill="none" xmlns="http://www.w3.org/2000/svg">
<path d="M15 16.4863C15.3586 18.1563 16.6631 19.4606 18.333 19.8193C16.663 20.178 15.3586 21.4833 15 23.1533C14.6414 21.4833 13.337 20.1781 11.667 19.8193C13.3369 19.4606 14.6414 18.1563 15 16.4863ZM7.55957 6.65332C8.31922 10.1905 11.0829 12.9533 14.6201 13.7129C11.0829 14.4725 8.31915 17.2362 7.55957 20.7734C6.79999 17.2362 4.03726 14.4725 0.5 13.7129C4.03712 12.9533 6.79987 10.1904 7.55957 6.65332ZM15.833 6.48633C16.102 7.73881 17.0806 8.71727 18.333 8.98633C17.0806 9.25539 16.102 10.2338 15.833 11.4863C15.564 10.2338 14.5856 9.2553 13.333 8.98633C14.5856 8.71736 15.564 7.73887 15.833 6.48633Z" fill="#174880"/>
</svg>
