<svg width="30" height="30" viewBox="0 0 30 30" fill="none" xmlns="http://www.w3.org/2000/svg">
<path d="M22.5 15C22.5 16.9891 21.7098 18.8968 20.3033 20.3033C18.8968 21.7098 16.9891 22.5 15 22.5C13.0109 22.5 11.1032 21.7098 9.6967 20.3033C8.29018 18.8968 7.5 16.9891 7.5 15C7.5 13.0109 8.29018 11.1032 9.6967 9.6967C11.1032 8.29018 13.0109 7.5 15 7.5C16.9891 7.5 18.8968 8.29018 20.3033 9.6967C21.7098 11.1032 22.5 13.0109 22.5 15Z" fill="#206CE8"/>
<path fill-rule="evenodd" clip-rule="evenodd" d="M15 1.5625C15.2486 1.5625 15.4871 1.66127 15.6629 1.83709C15.8387 2.0129 15.9375 2.25136 15.9375 2.5V3.75C15.9375 3.99864 15.8387 4.2371 15.6629 4.41291C15.4871 4.58873 15.2486 4.6875 15 4.6875C14.7514 4.6875 14.5129 4.58873 14.3371 4.41291C14.1613 4.2371 14.0625 3.99864 14.0625 3.75V2.5C14.0625 2.25136 14.1613 2.0129 14.3371 1.83709C14.5129 1.66127 14.7514 1.5625 15 1.5625ZM5.49875 5.49875C5.67453 5.32319 5.91281 5.22457 6.16125 5.22457C6.40969 5.22457 6.64797 5.32319 6.82375 5.49875L7.315 5.98875C7.48586 6.16548 7.58047 6.40225 7.57845 6.64807C7.57643 6.89388 7.47794 7.12906 7.3042 7.30296C7.13046 7.47687 6.89537 7.57557 6.64956 7.57783C6.40375 7.58008 6.16689 7.48569 5.99 7.315L5.49875 6.82375C5.32319 6.64797 5.22457 6.40969 5.22457 6.16125C5.22457 5.91281 5.32319 5.67453 5.49875 5.49875ZM24.5012 5.49875C24.6768 5.67453 24.7754 5.91281 24.7754 6.16125C24.7754 6.40969 24.6768 6.64797 24.5012 6.82375L24.01 7.315C23.8323 7.4806 23.5972 7.57075 23.3543 7.56647C23.1115 7.56218 22.8797 7.46379 22.708 7.29203C22.5362 7.12026 22.4378 6.88853 22.4335 6.64565C22.4292 6.40278 22.5194 6.16772 22.685 5.99L23.1763 5.49875C23.352 5.32319 23.5903 5.22457 23.8387 5.22457C24.0872 5.22457 24.3255 5.32319 24.5012 5.49875ZM1.5625 15C1.5625 14.7514 1.66127 14.5129 1.83709 14.3371C2.0129 14.1613 2.25136 14.0625 2.5 14.0625H3.75C3.99864 14.0625 4.2371 14.1613 4.41291 14.3371C4.58873 14.5129 4.6875 14.7514 4.6875 15C4.6875 15.2486 4.58873 15.4871 4.41291 15.6629C4.2371 15.8387 3.99864 15.9375 3.75 15.9375H2.5C2.25136 15.9375 2.0129 15.8387 1.83709 15.6629C1.66127 15.4871 1.5625 15.2486 1.5625 15ZM25.3125 15C25.3125 14.7514 25.4113 14.5129 25.5871 14.3371C25.7629 14.1613 26.0014 14.0625 26.25 14.0625H27.5C27.7486 14.0625 27.9871 14.1613 28.1629 14.3371C28.3387 14.5129 28.4375 14.7514 28.4375 15C28.4375 15.2486 28.3387 15.4871 28.1629 15.6629C27.9871 15.8387 27.7486 15.9375 27.5 15.9375H26.25C26.0014 15.9375 25.7629 15.8387 25.5871 15.6629C25.4113 15.4871 25.3125 15.2486 25.3125 15ZM22.685 22.685C22.8608 22.5094 23.0991 22.4108 23.3475 22.4108C23.5959 22.4108 23.8342 22.5094 24.01 22.685L24.5012 23.1763C24.5934 23.2621 24.6672 23.3656 24.7185 23.4806C24.7697 23.5956 24.7973 23.7197 24.7995 23.8456C24.8017 23.9715 24.7786 24.0965 24.7314 24.2132C24.6843 24.33 24.6141 24.436 24.525 24.525C24.436 24.6141 24.33 24.6843 24.2132 24.7314C24.0965 24.7786 23.9715 24.8017 23.8456 24.7995C23.7197 24.7973 23.5956 24.7697 23.4806 24.7185C23.3656 24.6672 23.2621 24.5934 23.1763 24.5012L22.685 24.01C22.5094 23.8342 22.4108 23.5959 22.4108 23.3475C22.4108 23.0991 22.5094 22.8608 22.685 22.685ZM7.315 22.685C7.49056 22.8608 7.58918 23.0991 7.58918 23.3475C7.58918 23.5959 7.49056 23.8342 7.315 24.01L6.82375 24.5012C6.73792 24.5934 6.63442 24.6672 6.51942 24.7185C6.40442 24.7697 6.28028 24.7973 6.1544 24.7995C6.02852 24.8017 5.90349 24.7786 5.78675 24.7314C5.67002 24.6843 5.56398 24.6141 5.47495 24.525C5.38593 24.436 5.31575 24.33 5.2686 24.2132C5.22145 24.0965 5.19829 23.9715 5.20051 23.8456C5.20273 23.7197 5.23028 23.5956 5.28152 23.4806C5.33276 23.3656 5.40664 23.2621 5.49875 23.1763L5.98875 22.685C6.07581 22.5979 6.17919 22.5288 6.29297 22.4816C6.40675 22.4345 6.52871 22.4102 6.65187 22.4102C6.77504 22.4102 6.897 22.4345 7.01078 22.4816C7.12456 22.5288 7.22794 22.5979 7.315 22.685ZM15 25.3125C15.2486 25.3125 15.4871 25.4113 15.6629 25.5871C15.8387 25.7629 15.9375 26.0014 15.9375 26.25V27.5C15.9375 27.7486 15.8387 27.9871 15.6629 28.1629C15.4871 28.3387 15.2486 28.4375 15 28.4375C14.7514 28.4375 14.5129 28.3387 14.3371 28.1629C14.1613 27.9871 14.0625 27.7486 14.0625 27.5V26.25C14.0625 26.0014 14.1613 25.7629 14.3371 25.5871C14.5129 25.4113 14.7514 25.3125 15 25.3125Z" fill="#206CE8"/>
</svg>
