<svg width="20" height="25" viewBox="0 0 20 25" fill="none" xmlns="http://www.w3.org/2000/svg">
<path d="M15.0005 16.4863C15.3592 18.1562 16.6635 19.4607 18.3335 19.8193C16.6635 20.1779 15.3592 21.4824 15.0005 23.1523C14.6418 21.4824 13.3365 20.178 11.6665 19.8193C13.3365 19.4607 14.6418 18.1563 15.0005 16.4863ZM7.56006 6.65234C8.31961 10.1895 11.0826 12.9532 14.6196 13.7129C11.0827 14.4726 8.31967 17.2355 7.56006 20.7725C6.80044 17.2354 4.03748 14.4726 0.500488 13.7129C4.03759 12.9532 6.8005 10.1895 7.56006 6.65234ZM15.8335 6.48633C16.1026 7.73874 17.081 8.71738 18.3335 8.98633C17.0809 9.2553 16.1025 10.2338 15.8335 11.4863C15.5645 10.2338 14.586 9.25536 13.3335 8.98633C14.586 8.71736 15.5644 7.73875 15.8335 6.48633Z" fill="white" fill-opacity="0.6"/>
</svg>
